<svg width="32" height="32" viewBox="0 0 32 32" fill="none" xmlns="http://www.w3.org/2000/svg">
  <!-- 背景圆形 -->
  <circle cx="16" cy="16" r="16" fill="url(#gradient1)"/>

  <!-- 书本图标 -->
  <path d="M8 6C8 5.44772 8.44772 5 9 5H15C15.5523 5 16 5.44772 16 6V26C16 26.5523 15.5523 27 15 27H9C8.44772 27 8 26.5523 8 26V6Z" fill="white" opacity="0.9"/>
  <path d="M16 6C16 5.44772 16.4477 5 17 5H23C23.5523 5 24 5.44772 24 6V26C24 26.5523 23.5523 27 23 27H17C16.4477 27 16 26.5523 16 26V6Z" fill="white" opacity="0.7"/>

  <!-- 知识星星 -->
  <path d="M16 8L17.2361 11.2361L20 12L17.2361 12.7639L16 16L14.7639 12.7639L12 12L14.7639 11.2361L16 8Z" fill="#FCD535"/>

  <!-- 学习路径线条 -->
  <path d="M6 20C8 18 10 16 12 18C14 20 16 18 18 16C20 14 22 16 24 14C26 12 28 14 30 12" stroke="#FCD535" stroke-width="2" stroke-linecap="round" opacity="0.8"/>

  <!-- 渐变定义 -->
  <defs>
    <linearGradient id="gradient1" x1="0%" y1="0%" x2="100%" y2="100%">
      <stop offset="0%" style="stop-color:#1E2329;stop-opacity:1" />
      <stop offset="100%" style="stop-color:#0B0E11;stop-opacity:1" />
    </linearGradient>
  </defs>
</svg>